#N canvas 37 176 1280 643 10;
#X declare -lib mrpeach;
#X declare -lib mrpeach;
#X declare -lib mrpeach;
#X declare -lib mrpeach;
#X declare -lib mrpeach;
#X declare -lib mrpeach;
#X obj 588 107 output~;
#X obj 430 -80 vowels;
#X obj 327 -215 tgl 15 0 empty empty empty 17 7 0 10 -262144 -1 -1
1 1;
#X obj 327 -194 metro 2000;
#X obj 472 -177 tgl 15 0 empty empty empty 17 7 0 10 -262144 -1 -1
1 1;
#X obj 471 -153 metro 1500;
#X obj 544 -177 tgl 15 0 empty empty empty 17 7 0 10 -262144 -1 -1
1 1;
#X obj 542 -153 metro 1000;
#X obj 654 -177 tgl 15 0 empty empty empty 17 7 0 10 -262144 -1 -1
1 1;
#X obj 651 -153 metro 500;
#X obj 790 -80 vowels;
#X obj 580 -80 vowels;
#X obj 500 -80 vowels;
#X obj 651 -80 vowels;
#X obj 720 -80 vowels;
#X connect 1 0 0 0;
#X connect 2 0 3 0;
#X connect 3 0 1 0;
#X connect 4 0 5 0;
#X connect 5 0 12 0;
#X connect 6 0 7 0;
#X connect 7 0 11 0;
#X connect 8 0 9 0;
#X connect 9 0 13 0;
#X connect 11 0 0 0;
#X connect 12 0 0 1;
#X connect 13 0 0 1;
