#N canvas 632 452 450 300 10;
#X declare -lib mrpeach;
#X obj 110 86 unpackOSC;
#X obj 110 109 route /bang;
#X obj 110 64 udpreceive 7777;
#X msg 110 39 port 7777;
#X obj 110 133 unpack;
#X obj 110 11 loadbang;
#X obj 110 158 outlet;
#X obj 298 70 import mrpeach;
#X connect 0 0 1 0;
#X connect 1 0 4 0;
#X connect 2 0 0 0;
#X connect 3 0 2 0;
#X connect 4 0 6 0;
#X connect 5 0 3 0;
