#N canvas 0 22 1280 696 10;
#X declare -lib mrpeach;
#X obj 451 214 sig~ 1;
#X obj 451 468 /~;
#X obj 466 417 *~;
#X obj 466 438 +~ 1;
#X obj 532 394 unpack f f f;
#X msg 533 210 400 1900 2550;
#X msg 533 188 280 2250 2900;
#X msg 533 231 550 1770 2490;
#X msg 533 253 690 1660 2490;
#X msg 533 275 640 1190 2390;
#X msg 533 297 310 870 2250;
#X msg 533 319 450 1030 2380;
#X msg 533 341 500 1500 2500;
#X msg 533 363 710 1100 2640;
#X msg 533 118 i;
#X msg 564 118 I;
#X msg 595 118 E;
#X msg 626 118 ae;
#X msg 657 118 ^;
#X msg 688 118 u;
#X msg 718 118 U;
#X msg 747 118 &;
#X msg 777 118 A;
#X obj 533 159 route i I E ae ^ u U & A;
#X obj 451 687 clip~ -1 1;
#X obj 466 396 *~ 24;
#X obj 451 489 -~ 0;
#X obj 421 -93 bng 15 250 50 0 empty empty empty 17 7 0 10 -262144
-1 -1;
#X obj 375 133 <= 30;
#X obj 533 38 / 10;
#X obj 533 67 int;
#X obj 532 442 line;
#X obj 566 462 line;
#X obj 601 485 line;
#X obj -26 136 mtof;
#X obj -16 32 hradio 15 1 0 8 empty empty empty 0 -8 0 10 -262144 -1
-1 3;
#X obj 533 87 select 3 4 5 6 7 8 9;
#X obj 89 1279 *~;
#X obj -84 -93 bng 15 250 50 0 empty empty empty 17 7 0 10 -262144
-1 -1;
#X obj 89 1323 outlet~;
#X obj 138 -57 loadbang;
#X obj 352 -62 random 100;
#X obj -84 -122 inlet;
#X obj 190 190 * 1;
#X msg 1 89 48;
#X obj 451 712 env~;
#X msg 27 90 60;
#X msg 110 90 55;
#N canvas 155 102 662 468 envelope 0;
#X msg 223 215 0 \$1;
#X obj 152 87 int;
#X obj 152 151 delay;
#X obj 223 190 int;
#X obj 152 108 t b f;
#X obj 152 -7 inlet;
#X obj 238 71 line;
#X floatatom 369 91 5 0 0 0 - - -;
#X floatatom 314 120 5 0 0 0 - - -;
#X obj 238 151 * 4;
#X obj 179 275 line;
#X obj 179 338 outlet;
#X obj 238 27 random 1000;
#X msg 179 215 5 \$1;
#X obj 179 129 / 1000;
#X msg 238 50 \$1 10000;
#X connect 0 0 10 0;
#X connect 1 0 4 0;
#X connect 2 0 3 0;
#X connect 3 0 0 0;
#X connect 4 0 2 0;
#X connect 4 1 14 0;
#X connect 5 0 1 0;
#X connect 5 0 12 0;
#X connect 6 0 1 1;
#X connect 6 0 8 0;
#X connect 6 0 9 0;
#X connect 9 0 3 1;
#X connect 10 0 11 0;
#X connect 12 0 15 0;
#X connect 12 0 7 0;
#X connect 13 0 10 0;
#X connect 14 0 13 0;
#X connect 14 0 2 1;
#X connect 15 0 6 0;
#X restore -84 1135 pd envelope;
#X obj -26 6 random 9;
#X obj -26 56 select 0 1 2 3 4 5 6 7;
#X obj 421 -62 random 100;
#X obj 226 27 bang;
#X obj -224 120 env~;
#X obj -221 140 hsl 128 15 0 127 0 0 empty empty empty -2 -8 0 10 -262144
-1 -1 0 1;
#N canvas 0 22 1280 696 harmonisch 0;
#X obj 457 305 tgl 15 0 empty empty empty 17 7 0 10 -262144 -1 -1 1
1;
#X obj 442 27 inlet;
#X obj 442 645 outlet~;
#X obj 457 88 loadbang;
#X msg 457 111 1;
#N canvas 572 209 450 300 line2 0;
#X obj 162 108 random 100;
#X obj 194 164 line;
#X obj 197 64 metro 2000;
#X obj 191 204 outlet;
#X obj 197 36 inlet;
#X floatatom 282 195 5 0 0 0 - - -;
#X obj 258 124 i;
#X floatatom 326 98 5 0 2000 0 - - -;
#X obj 276 37 loadbang;
#X obj 357 45 inlet;
#X msg 282 75 10000;
#X floatatom 89 157 5 0 0 0 - - -;
#X obj 107 112 bng 15 250 50 0 empty empty empty 17 7 0 10 -262144
-1 -1;
#X obj 127 107 bng 15 250 50 0 empty empty empty 17 7 0 10 -262144
-1 -1;
#X connect 0 0 1 0;
#X connect 0 0 11 0;
#X connect 1 0 3 0;
#X connect 1 0 5 0;
#X connect 2 0 0 0;
#X connect 2 0 6 0;
#X connect 2 0 13 0;
#X connect 4 0 2 0;
#X connect 6 0 1 1;
#X connect 7 0 6 1;
#X connect 8 0 10 0;
#X connect 9 0 7 0;
#X connect 10 0 6 1;
#X restore 457 328 pd line2;
#N canvas 0 22 1280 696 10harmonischenenz------- 0;
#X obj -9 274 vsl 15 128 0 100 0 0 empty empty empty 0 -9 0 10 -262144
-1 -1 6315 1;
#X obj -9 238 inlet;
#X obj -24 110 * 1;
#X obj -109 18 inlet;
#X obj 42 239 inlet;
#X obj 93 239 inlet;
#X obj 144 238 inlet;
#X obj 195 239 inlet;
#X obj 246 239 inlet;
#X obj 297 238 inlet;
#X obj 348 239 inlet;
#X obj 399 239 inlet;
#X obj 450 238 inlet;
#X obj 27 109 * 2;
#X obj 78 111 * 3;
#X obj 129 110 * 4;
#X obj 180 111 * 5;
#X obj 231 111 * 6;
#X obj 282 110 * 7;
#X obj 333 110 * 8;
#X obj 384 111 * 9;
#X obj 435 110 * 10;
#X obj -24 156 osc~;
#X obj 27 156 osc~;
#X obj 78 156 osc~;
#X obj 129 156 osc~;
#X obj 180 156 osc~;
#X obj 231 156 osc~;
#X obj 282 156 osc~;
#X obj 333 156 osc~;
#X obj 384 156 osc~;
#X obj 435 156 osc~;
#X obj 180 579 outlet~;
#X obj -24 493 *~;
#X obj 27 494 *~;
#X obj 78 494 *~;
#X obj 129 493 *~;
#X obj 180 494 *~;
#X obj 231 494 *~;
#X obj 282 493 *~;
#X obj 333 494 *~;
#X obj 384 494 *~;
#X obj 435 493 *~;
#X obj 180 543 /~ 100;
#X obj 230 579 outlet~;
#X obj 230 543 /~ 100;
#X obj -9 418 sig~;
#X obj -9 452 lop~ 10;
#X obj 42 274 vsl 15 128 0 100 0 0 empty empty empty 0 -9 0 10 -262144
-1 -1 6028 1;
#X obj 42 418 sig~;
#X obj 42 452 lop~ 10;
#X obj 93 274 vsl 15 128 0 100 0 0 empty empty empty 0 -9 0 10 -262144
-1 -1 5236 1;
#X obj 93 418 sig~;
#X obj 93 452 lop~ 10;
#X obj 144 274 vsl 15 128 0 100 0 0 empty empty empty 0 -9 0 10 -262144
-1 -1 4326 1;
#X obj 144 418 sig~;
#X obj 144 452 lop~ 10;
#X obj 195 274 vsl 15 128 0 100 0 0 empty empty empty 0 -9 0 10 -262144
-1 -1 6123 1;
#X obj 195 418 sig~;
#X obj 195 452 lop~ 10;
#X obj 246 274 vsl 15 128 0 100 0 0 empty empty empty 0 -9 0 10 -262144
-1 -1 4331 1;
#X obj 246 418 sig~;
#X obj 246 452 lop~ 10;
#X obj 297 274 vsl 15 128 0 100 0 0 empty empty empty 0 -9 0 10 -262144
-1 -1 8573 1;
#X obj 297 418 sig~;
#X obj 297 452 lop~ 10;
#X obj 348 274 vsl 15 128 0 100 0 0 empty empty empty 0 -9 0 10 -262144
-1 -1 4737 1;
#X obj 348 418 sig~;
#X obj 348 452 lop~ 10;
#X obj 399 274 vsl 15 128 0 100 0 0 empty empty empty 0 -9 0 10 -262144
-1 -1 7061 1;
#X obj 399 418 sig~;
#X obj 399 452 lop~ 10;
#X obj 450 274 vsl 15 128 0 100 0 0 empty empty empty 0 -9 0 10 -262144
-1 -1 5987 1;
#X obj 450 418 sig~;
#X obj 450 452 lop~ 10;
#X connect 1 0 0 0;
#X connect 1 0 46 0;
#X connect 2 0 22 0;
#X connect 3 0 2 0;
#X connect 3 0 13 0;
#X connect 3 0 14 0;
#X connect 3 0 15 0;
#X connect 3 0 16 0;
#X connect 3 0 17 0;
#X connect 3 0 18 0;
#X connect 3 0 19 0;
#X connect 3 0 20 0;
#X connect 3 0 21 0;
#X connect 4 0 49 0;
#X connect 4 0 48 0;
#X connect 5 0 52 0;
#X connect 5 0 51 0;
#X connect 6 0 55 0;
#X connect 6 0 54 0;
#X connect 7 0 58 0;
#X connect 7 0 57 0;
#X connect 8 0 61 0;
#X connect 8 0 60 0;
#X connect 9 0 64 0;
#X connect 9 0 63 0;
#X connect 10 0 67 0;
#X connect 10 0 66 0;
#X connect 11 0 70 0;
#X connect 11 0 69 0;
#X connect 12 0 73 0;
#X connect 12 0 72 0;
#X connect 13 0 23 0;
#X connect 14 0 24 0;
#X connect 15 0 25 0;
#X connect 16 0 26 0;
#X connect 17 0 27 0;
#X connect 18 0 28 0;
#X connect 19 0 29 0;
#X connect 20 0 30 0;
#X connect 21 0 31 0;
#X connect 22 0 33 0;
#X connect 23 0 34 0;
#X connect 24 0 35 0;
#X connect 25 0 36 0;
#X connect 26 0 37 0;
#X connect 27 0 38 0;
#X connect 28 0 39 0;
#X connect 29 0 40 0;
#X connect 30 0 41 0;
#X connect 31 0 42 0;
#X connect 33 0 43 0;
#X connect 34 0 43 0;
#X connect 35 0 43 0;
#X connect 36 0 43 0;
#X connect 37 0 43 0;
#X connect 38 0 45 0;
#X connect 39 0 45 0;
#X connect 40 0 45 0;
#X connect 41 0 45 0;
#X connect 42 0 45 0;
#X connect 43 0 32 0;
#X connect 45 0 44 0;
#X connect 46 0 47 0;
#X connect 47 0 33 1;
#X connect 49 0 50 0;
#X connect 50 0 34 1;
#X connect 52 0 53 0;
#X connect 53 0 35 1;
#X connect 55 0 56 0;
#X connect 56 0 36 1;
#X connect 58 0 59 0;
#X connect 59 0 37 1;
#X connect 61 0 62 0;
#X connect 62 0 38 1;
#X connect 64 0 65 0;
#X connect 65 0 39 1;
#X connect 67 0 68 0;
#X connect 68 0 40 1;
#X connect 70 0 71 0;
#X connect 71 0 41 1;
#X connect 73 0 74 0;
#X connect 74 0 42 1;
#X restore 442 575 pd 10harmonischenenz-------;
#N canvas 572 209 450 300 line2 0;
#X obj 163 102 random 100;
#X obj 194 164 line;
#X obj 197 64 metro 2000;
#X obj 191 204 outlet;
#X obj 197 36 inlet;
#X floatatom 282 195 5 0 0 0 - - -;
#X obj 258 124 i;
#X floatatom 326 98 5 0 2000 0 - - -;
#X obj 276 37 loadbang;
#X obj 357 45 inlet;
#X msg 282 75 10000;
#X connect 0 0 1 0;
#X connect 1 0 3 0;
#X connect 1 0 5 0;
#X connect 2 0 0 0;
#X connect 2 0 6 0;
#X connect 4 0 2 0;
#X connect 6 0 1 1;
#X connect 7 0 6 1;
#X connect 8 0 10 0;
#X connect 9 0 7 0;
#X connect 10 0 6 1;
#X restore 480 348 pd line2;
#N canvas 572 209 450 300 line2 0;
#X obj 163 102 random 100;
#X obj 194 164 line;
#X obj 197 64 metro 2000;
#X obj 191 204 outlet;
#X obj 197 36 inlet;
#X floatatom 282 195 5 0 0 0 - - -;
#X obj 258 124 i;
#X floatatom 326 98 5 0 2000 0 - - -;
#X obj 276 37 loadbang;
#X obj 357 45 inlet;
#X msg 282 75 10000;
#X connect 0 0 1 0;
#X connect 1 0 3 0;
#X connect 1 0 5 0;
#X connect 2 0 0 0;
#X connect 2 0 6 0;
#X connect 4 0 2 0;
#X connect 6 0 1 1;
#X connect 7 0 6 1;
#X connect 8 0 10 0;
#X connect 9 0 7 0;
#X connect 10 0 6 1;
#X restore 488 368 pd line2;
#N canvas 572 209 450 300 line2 0;
#X obj 163 102 random 100;
#X obj 194 164 line;
#X obj 197 64 metro 2000;
#X obj 191 204 outlet;
#X obj 197 36 inlet;
#X floatatom 282 195 5 0 0 0 - - -;
#X obj 258 124 i;
#X floatatom 326 98 5 0 2000 0 - - -;
#X obj 276 37 loadbang;
#X obj 357 45 inlet;
#X msg 282 75 10000;
#X connect 0 0 1 0;
#X connect 1 0 3 0;
#X connect 1 0 5 0;
#X connect 2 0 0 0;
#X connect 2 0 6 0;
#X connect 4 0 2 0;
#X connect 6 0 1 1;
#X connect 7 0 6 1;
#X connect 8 0 10 0;
#X connect 9 0 7 0;
#X connect 10 0 6 1;
#X restore 511 388 pd line2;
#N canvas 572 209 450 300 line2 0;
#X obj 163 102 random 100;
#X obj 194 164 line;
#X obj 197 64 metro 2000;
#X obj 191 204 outlet;
#X obj 197 36 inlet;
#X floatatom 282 195 5 0 0 0 - - -;
#X obj 258 124 i;
#X floatatom 326 98 5 0 2000 0 - - -;
#X obj 276 37 loadbang;
#X obj 357 45 inlet;
#X msg 282 75 10000;
#X connect 0 0 1 0;
#X connect 1 0 3 0;
#X connect 1 0 5 0;
#X connect 2 0 0 0;
#X connect 2 0 6 0;
#X connect 4 0 2 0;
#X connect 6 0 1 1;
#X connect 7 0 6 1;
#X connect 8 0 10 0;
#X connect 9 0 7 0;
#X connect 10 0 6 1;
#X restore 521 408 pd line2;
#N canvas 572 209 450 300 line2 0;
#X obj 163 102 random 100;
#X obj 194 164 line;
#X obj 197 64 metro 2000;
#X obj 191 204 outlet;
#X obj 197 36 inlet;
#X floatatom 282 195 5 0 0 0 - - -;
#X obj 258 124 i;
#X floatatom 326 98 5 0 2000 0 - - -;
#X obj 276 37 loadbang;
#X obj 357 45 inlet;
#X msg 282 75 10000;
#X connect 0 0 1 0;
#X connect 1 0 3 0;
#X connect 1 0 5 0;
#X connect 2 0 0 0;
#X connect 2 0 6 0;
#X connect 4 0 2 0;
#X connect 6 0 1 1;
#X connect 7 0 6 1;
#X connect 8 0 10 0;
#X connect 9 0 7 0;
#X connect 10 0 6 1;
#X restore 544 428 pd line2;
#N canvas 572 209 450 300 line2 0;
#X obj 163 102 random 100;
#X obj 194 164 line;
#X obj 197 64 metro 2000;
#X obj 191 204 outlet;
#X obj 197 36 inlet;
#X floatatom 282 195 5 0 0 0 - - -;
#X obj 258 124 i;
#X floatatom 326 98 5 0 2000 0 - - -;
#X obj 276 37 loadbang;
#X obj 357 45 inlet;
#X msg 282 75 10000;
#X connect 0 0 1 0;
#X connect 1 0 3 0;
#X connect 1 0 5 0;
#X connect 2 0 0 0;
#X connect 2 0 6 0;
#X connect 4 0 2 0;
#X connect 6 0 1 1;
#X connect 7 0 6 1;
#X connect 8 0 10 0;
#X connect 9 0 7 0;
#X connect 10 0 6 1;
#X restore 552 448 pd line2;
#N canvas 572 209 450 300 line2 0;
#X obj 163 102 random 100;
#X obj 194 164 line;
#X obj 197 64 metro 2000;
#X obj 191 204 outlet;
#X obj 197 36 inlet;
#X floatatom 282 195 5 0 0 0 - - -;
#X obj 258 124 i;
#X floatatom 326 98 5 0 2000 0 - - -;
#X obj 276 37 loadbang;
#X obj 357 45 inlet;
#X msg 282 75 10000;
#X connect 0 0 1 0;
#X connect 1 0 3 0;
#X connect 1 0 5 0;
#X connect 2 0 0 0;
#X connect 2 0 6 0;
#X connect 4 0 2 0;
#X connect 6 0 1 1;
#X connect 7 0 6 1;
#X connect 8 0 10 0;
#X connect 9 0 7 0;
#X connect 10 0 6 1;
#X restore 575 468 pd line2;
#N canvas 572 209 450 300 line2 0;
#X obj 163 102 random 100;
#X obj 194 164 line;
#X obj 197 64 metro 2000;
#X obj 191 204 outlet;
#X obj 197 36 inlet;
#X floatatom 282 195 5 0 0 0 - - -;
#X obj 258 124 i;
#X floatatom 326 98 5 0 2000 0 - - -;
#X obj 276 37 loadbang;
#X obj 357 45 inlet;
#X msg 282 75 10000;
#X connect 0 0 1 0;
#X connect 1 0 3 0;
#X connect 1 0 5 0;
#X connect 2 0 0 0;
#X connect 2 0 6 0;
#X connect 4 0 2 0;
#X connect 6 0 1 1;
#X connect 7 0 6 1;
#X connect 8 0 10 0;
#X connect 9 0 7 0;
#X connect 10 0 6 1;
#X restore 585 488 pd line2;
#N canvas 572 209 450 300 line2 0;
#X obj 163 102 random 100;
#X obj 194 164 line;
#X obj 197 64 metro 2000;
#X obj 191 204 outlet;
#X obj 197 36 inlet;
#X floatatom 282 195 5 0 0 0 - - -;
#X obj 258 124 i;
#X floatatom 326 98 5 0 2000 0 - - -;
#X obj 276 37 loadbang;
#X obj 357 45 inlet;
#X msg 282 75 10000;
#X connect 0 0 1 0;
#X connect 1 0 3 0;
#X connect 1 0 5 0;
#X connect 2 0 0 0;
#X connect 2 0 6 0;
#X connect 4 0 2 0;
#X connect 6 0 1 1;
#X connect 7 0 6 1;
#X connect 8 0 10 0;
#X connect 9 0 7 0;
#X connect 10 0 6 1;
#X restore 608 508 pd line2;
#X obj 472 222 env~ 2;
#X obj 457 531 * 1;
#X obj 472 250 / 100;
#X obj 529 222 env~ 2;
#X obj 529 250 / 100;
#X obj 480 553 *;
#X obj 488 531 * 1;
#X obj 511 553 *;
#X obj 521 531 * 1;
#X obj 544 553 *;
#X obj 552 531 * 1;
#X obj 575 553 *;
#X obj 585 531 * 1;
#X obj 608 553 *;
#X obj 582 222 env~ 2;
#X obj 582 250 / 100;
#X obj 629 222 env~ 2;
#X obj 629 250 / 100;
#X obj 672 222 env~ 2;
#X obj 672 250 / 100;
#X obj 719 222 env~ 2;
#X obj 719 250 / 100;
#X obj 772 222 env~ 2;
#X obj 772 250 / 100;
#X obj 819 222 env~ 2;
#X obj 819 250 / 100;
#X obj 862 222 env~ 2;
#X obj 862 250 / 100;
#X obj 909 222 env~ 2;
#X obj 909 250 / 100;
#X obj 529 196 osc~ 2;
#X obj 672 196 osc~ 10;
#X obj 772 196 osc~ 5;
#X obj 819 196 osc~ 8;
#X obj 862 196 osc~ 3;
#X obj 582 196 osc~ 7;
#X obj 719 196 osc~ 6;
#X obj 629 196 osc~ 5;
#X obj 472 196 osc~ 4;
#X obj 909 196 osc~ 9;
#X connect 0 0 5 0;
#X connect 0 0 7 0;
#X connect 0 0 8 0;
#X connect 0 0 9 0;
#X connect 0 0 10 0;
#X connect 0 0 11 0;
#X connect 0 0 12 0;
#X connect 0 0 13 0;
#X connect 0 0 14 0;
#X connect 0 0 15 0;
#X connect 1 0 6 0;
#X connect 3 0 4 0;
#X connect 4 0 0 0;
#X connect 5 0 17 0;
#X connect 6 0 2 0;
#X connect 6 1 2 0;
#X connect 7 0 21 0;
#X connect 8 0 22 0;
#X connect 9 0 23 0;
#X connect 10 0 24 0;
#X connect 11 0 25 0;
#X connect 12 0 26 0;
#X connect 13 0 27 0;
#X connect 14 0 28 0;
#X connect 15 0 29 0;
#X connect 16 0 18 0;
#X connect 17 0 6 1;
#X connect 18 0 17 1;
#X connect 19 0 20 0;
#X connect 20 0 21 1;
#X connect 21 0 6 2;
#X connect 22 0 6 3;
#X connect 23 0 6 4;
#X connect 24 0 6 5;
#X connect 25 0 6 6;
#X connect 26 0 6 7;
#X connect 27 0 6 8;
#X connect 28 0 6 9;
#X connect 29 0 6 10;
#X connect 30 0 31 0;
#X connect 31 0 22 1;
#X connect 32 0 33 0;
#X connect 33 0 23 1;
#X connect 34 0 35 0;
#X connect 35 0 24 1;
#X connect 36 0 37 0;
#X connect 37 0 25 1;
#X connect 38 0 39 0;
#X connect 39 0 26 1;
#X connect 40 0 41 0;
#X connect 41 0 27 1;
#X connect 42 0 43 0;
#X connect 43 0 28 1;
#X connect 44 0 45 0;
#X connect 45 0 29 1;
#X connect 46 0 19 0;
#X connect 47 0 34 0;
#X connect 48 0 38 0;
#X connect 49 0 40 0;
#X connect 50 0 42 0;
#X connect 51 0 30 0;
#X connect 52 0 36 0;
#X connect 53 0 32 0;
#X connect 54 0 16 0;
#X connect 55 0 44 0;
#X restore 190 220 pd harmonisch;
#X obj 190 366 /~ 10;
#X obj 524 687 env~;
#X obj 527 714 hsl 128 15 0 127 0 0 empty empty empty -2 -8 0 10 -262144
-1 -1 7027 1;
#X obj 451 658 hip~ 10;
#X obj 466 377 *~ 1;
#X obj 451 614 /~ 1;
#X obj 190 338 lop~;
#X obj 211 316 *;
#X obj 274 249 random 10;
#X obj 225 710 clip~ -1 1;
#X obj 282 605 line2;
#X obj 282 582 tgl 15 0 empty empty empty 17 7 0 10 -262144 -1 -1 1
1;
#X obj 282 639 / 100;
#X obj 253 679 * -1;
#X msg 282 556 1;
#X obj -84 1159 sig~;
#X obj -84 1181 lop~ 5;
#X msg 54 90 67;
#X msg 166 90 52;
#X msg 138 90 59;
#X obj 226 142 line;
#X msg -26 89 47;
#X msg 82 90 59;
#X obj 190 810 clip~ -1 1;
#X obj 190 166 / 2;
#X obj 190 853 lop~;
#X obj 448 766 noise~;
#X obj 343 805 env~ 2;
#X obj 398 856 hsl 128 15 0 127 0 0 empty empty empty -2 -8 0 10 -262144
-1 -1 3311 1;
#X floatatom 349 879 5 0 0 0 - - -;
#X obj 332 840 * 1;
#X obj -44 -144 oscr;
#X obj -44 -122 select 1;
#X obj -14 748 line2;
#X floatatom -14 779 5 0 0 0 - - -;
#X obj 12 890 tgl 15 0 empty empty empty 17 7 0 10 -262144 -1 -1 1
1;
#N canvas 0 73 807 528 fm 0;
#X obj 549 318 osc~;
#X obj 549 348 *~;
#X obj 549 288 +~;
#X floatatom 512 258 5 0 0 0 - - -;
#X obj 564 224 osc~;
#X floatatom 564 196 5 0 0 0 - - -;
#X obj 564 257 *~;
#X obj 622 216 hsl 128 15 10 5000 1 0 empty empty empty -2 -8 0 10
-262144 -1 -1 3153 1;
#X obj 627 329 vline~;
#X msg 627 303 1 \$1 0 \, 0 \$2 \$3;
#X obj 627 250 bng 15 250 50 0 empty empty empty 17 7 0 10 -262144
-1 -1;
#X msg 627 277 2 1000 500;
#X obj 629 166 line2;
#X obj 625 136 tgl 15 0 empty empty empty 17 7 0 10 -262144 -1 -1 1
1;
#X msg 661 131 10000;
#X obj 549 388 outlet~;
#X obj 452 71 inlet;
#X obj 516 75 inlet;
#X obj 588 80 inlet;
#X obj 650 84 inlet;
#X obj 490 132 *;
#X obj 715 87 inlet;
#X floatatom 524 152 5 0 0 0 - - -;
#X text 339 69 basis frequentie;
#X text 516 55 ratio;
#X text 576 61 Fm depth;
#X text 632 65 random depth;
#X text 758 83 envelope;
#X connect 0 0 1 0;
#X connect 1 0 15 0;
#X connect 2 0 0 0;
#X connect 3 0 2 0;
#X connect 4 0 6 0;
#X connect 5 0 4 0;
#X connect 6 0 2 1;
#X connect 7 0 6 1;
#X connect 8 0 1 1;
#X connect 9 0 8 0;
#X connect 10 0 11 0;
#X connect 11 0 9 0;
#X connect 12 0 7 0;
#X connect 13 0 12 0;
#X connect 14 0 12 1;
#X connect 16 0 20 0;
#X connect 16 0 2 0;
#X connect 17 0 20 1;
#X connect 18 0 6 1;
#X connect 19 0 14 0;
#X connect 19 0 13 0;
#X connect 20 0 4 0;
#X connect 20 0 22 0;
#X connect 21 0 10 0;
#X restore -26 913 pd fm - -;
#X obj -14 726 tgl 15 0 empty empty empty 17 7 0 10 -262144 -1 -1 1
1;
#X msg 13 727 10000;
#X obj 130 1112 * -1;
#X obj 130 1136 + 1;
#X obj 115 1191 *~;
#X obj 88 1191 *~;
#X obj 103 1064 line2;
#X obj 103 1042 tgl 15 0 empty empty empty 17 7 0 10 -262144 -1 -1
1 1;
#X obj 103 1085 / 100;
#X msg 130 1043 100000;
#X obj 88 1239 *~;
#X obj -2 935 noise~;
#X obj -2 968 bp~ 1000 1000;
#X obj 48 924 * 8;
#X obj 238 1054 + 1;
#X obj 223 1079 *~;
#X obj 190 1079 *~;
#X obj 205 982 line2;
#X obj 205 960 tgl 15 0 empty empty empty 17 7 0 10 -262144 -1 -1 1
1;
#X msg 232 961 100000;
#X obj 223 886 noise~;
#X obj 223 915 bp~ 1000 1000;
#X obj 13 1085 + 1;
#X obj -2 1110 *~;
#X obj -26 1110 *~;
#X obj -11 1018 line2;
#X obj -11 996 tgl 15 0 empty empty empty 17 7 0 10 -262144 -1 -1 1
1;
#X msg 16 997 100000;
#X obj 138 834 bng 15 250 50 0 empty empty loadbang 17 7 0 10 -262144
-1 -1;
#X obj 314 1333 output~;
#X text -60 -93 Bang for sound;
#X obj 300 828 * 100;
#X obj -14 823 int;
#X obj -14 799 / 10;
#X obj -11 1038 / 100;
#X obj 190 762 *~ 0.0001;
#X obj 205 1002 / 50;
#X msg 245 110 \$1 100;
#X text 435 -82 choose random vowel;
#X obj -14 874 line;
#X msg -14 852 \$1 300;
#X obj 451 734 / 50;
#X obj 238 1030 * -10;
#X obj 13 1061 * -1;
#X obj 216 166 int;
#X obj 245 52 random 8;
#X text 31 10 determine pitch;
#X text 633 574 Setting bandpass filters (vowels);
#X text 661 461 change slowly;
#X text 276 219 10 sinus occilator;
#X text -80 912 Fm synth;
#X msg 601 462 \$1 1000;
#X msg 566 439 \$1 1000;
#X msg 532 419 \$1 1000;
#X obj -245 1204 env~;
#X obj -242 1228 hsl 128 15 0 127 0 0 empty empty empty -2 -8 0 10
-262144 -1 -1 0 1;
#X obj 213 1248 s~ output;
#X obj 429 -142 writesf~;
#X msg 497 -167 start;
#X msg 536 -166 stop;
#X obj -184 -125 metro 2000;
#X obj -188 -145 tgl 15 0 empty empty empty 17 7 0 10 -262144 -1 -1
0 1;
#N canvas 275 79 450 300 bus 0;
#X obj 182 127 inlet;
#X obj 182 160 outlet;
#X connect 0 0 1 0;
#X restore 245 82 pd bus;
#N canvas 275 79 450 300 bus 0;
#X obj 182 127 inlet;
#X obj 182 160 outlet;
#X connect 0 0 1 0;
#X restore 352 -34 pd bus;
#N canvas 275 79 450 300 bus 0;
#X obj 182 127 inlet;
#X obj 182 160 outlet;
#X connect 0 0 1 0;
#X restore 421 -37 pd bus;
#X obj 596 -127 select 1 2 3 4 5 6 7 8 9 10 11 12 13 14 15 16;
#X msg 596 -77 0;
#X msg 627 -77 1;
#X msg 661 -77 2;
#X msg 689 -77 3;
#X msg 719 -77 4;
#X msg 749 -77 5;
#X msg 779 -77 6;
#X msg 809 -77 7;
#X obj 622 -179 tellertje;
#X obj 628 -217 bng 15 250 50 0 empty empty empty 17 7 0 10 -262144
-1 -1;
#X floatatom 623 -156 5 0 0 0 - - -;
#X obj 666 -209 bng 15 250 50 0 empty empty empty 17 7 0 10 -262144
-1 -1;
#X obj 325 -183 r~ output;
#X obj 187 -162 env~;
#X obj 190 -142 hsl 128 15 0 127 0 0 empty empty empty -2 -8 0 10 -262144
-1 -1 0 1;
#X floatatom 266 324 5 0 0 0 - - -;
#X obj 451 575 bp~ 1 100;
#X obj 514 575 bp~ 1 100;
#X obj 579 574 bp~ 1 100;
#X obj 561 -122 * 5;
#X obj 576 -142 + 3;
#X obj 457 69 % 10;
#N canvas 693 30 450 300 bus 0;
#X obj 192 137 inlet;
#X obj 192 170 outlet;
#X connect 0 0 1 0;
#X restore 596 -39 pd bus;
#X floatatom 319 663 5 0 0 0 - - -;
#X obj 278 155 env~;
#X obj 281 175 hsl 128 15 0 127 0 0 empty empty empty -2 -8 0 10 -262144
-1 -1 6557 1;
#X obj 448 791 lop~ 0.01;
#X floatatom 596 32 5 0 0 0 - - -;
#X floatatom 721 16 5 0 0 0 - - -;
#X obj 190 667 *~ 2;
#X msg 322 256 0;
#X obj 171 1293 hip~ 20;
#X msg 429 -227 open 8.1.wav;
#X connect 0 0 1 0;
#X connect 1 0 26 0;
#X connect 2 0 3 0;
#X connect 3 0 1 1;
#X connect 4 0 146 0;
#X connect 4 1 145 0;
#X connect 4 2 144 0;
#X connect 5 0 4 0;
#X connect 6 0 4 0;
#X connect 7 0 4 0;
#X connect 8 0 4 0;
#X connect 9 0 4 0;
#X connect 10 0 4 0;
#X connect 11 0 4 0;
#X connect 12 0 4 0;
#X connect 13 0 4 0;
#X connect 14 0 23 0;
#X connect 15 0 23 0;
#X connect 16 0 23 0;
#X connect 17 0 23 0;
#X connect 18 0 23 0;
#X connect 19 0 23 0;
#X connect 20 0 23 0;
#X connect 21 0 23 0;
#X connect 22 0 23 0;
#X connect 23 0 6 0;
#X connect 23 1 5 0;
#X connect 23 2 7 0;
#X connect 23 3 8 0;
#X connect 23 4 9 0;
#X connect 23 5 10 0;
#X connect 23 6 11 0;
#X connect 23 7 12 0;
#X connect 23 8 13 0;
#X connect 24 0 45 0;
#X connect 24 0 128 0;
#X connect 25 0 2 0;
#X connect 25 0 2 1;
#X connect 26 0 175 0;
#X connect 26 0 176 0;
#X connect 26 0 177 0;
#X connect 27 0 51 0;
#X connect 29 0 180 0;
#X connect 30 0 36 0;
#X connect 30 0 187 0;
#X connect 31 0 175 1;
#X connect 32 0 176 1;
#X connect 33 0 177 1;
#X connect 34 0 63 0;
#X connect 34 0 80 0;
#X connect 34 0 92 0;
#X connect 34 0 106 0;
#X connect 34 0 114 1;
#X connect 36 0 14 0;
#X connect 36 1 15 0;
#X connect 36 2 16 0;
#X connect 36 3 17 0;
#X connect 36 4 19 0;
#X connect 36 5 20 0;
#X connect 36 6 22 0;
#X connect 37 0 190 0;
#X connect 38 0 27 0;
#X connect 38 0 48 0;
#X connect 38 0 49 0;
#X connect 38 0 92 4;
#X connect 40 0 41 0;
#X connect 40 0 70 0;
#X connect 40 0 121 0;
#X connect 41 0 156 0;
#X connect 42 0 38 0;
#X connect 43 0 55 0;
#X connect 44 0 34 0;
#X connect 45 0 134 0;
#X connect 46 0 34 0;
#X connect 47 0 34 0;
#X connect 48 0 71 0;
#X connect 49 0 35 0;
#X connect 49 0 50 0;
#X connect 50 0 77 0;
#X connect 50 1 44 0;
#X connect 50 2 46 0;
#X connect 50 3 73 0;
#X connect 50 4 78 0;
#X connect 50 5 47 0;
#X connect 50 6 75 0;
#X connect 50 7 74 0;
#X connect 50 8 52 0;
#X connect 51 0 157 0;
#X connect 52 0 138 0;
#X connect 52 0 64 0;
#X connect 53 0 54 0;
#X connect 55 0 62 0;
#X connect 56 0 60 0;
#X connect 56 0 183 0;
#X connect 56 0 188 0;
#X connect 57 0 58 0;
#X connect 59 0 57 0;
#X connect 59 0 24 0;
#X connect 60 0 25 0;
#X connect 61 0 59 0;
#X connect 62 0 56 0;
#X connect 63 0 62 1;
#X connect 64 0 63 1;
#X connect 65 0 128 0;
#X connect 66 0 68 0;
#X connect 67 0 66 0;
#X connect 68 0 69 0;
#X connect 68 0 65 2;
#X connect 68 0 182 0;
#X connect 69 0 65 1;
#X connect 70 0 67 0;
#X connect 71 0 72 0;
#X connect 72 0 37 1;
#X connect 73 0 34 0;
#X connect 74 0 34 0;
#X connect 75 0 34 0;
#X connect 76 0 137 0;
#X connect 77 0 34 0;
#X connect 78 0 34 0;
#X connect 79 0 81 0;
#X connect 80 0 43 0;
#X connect 81 0 109 0;
#X connect 82 0 185 0;
#X connect 83 0 84 0;
#X connect 83 0 86 0;
#X connect 83 0 124 0;
#X connect 86 0 85 0;
#X connect 87 0 88 0;
#X connect 88 0 38 0;
#X connect 89 0 90 0;
#X connect 90 0 126 0;
#X connect 91 0 92 3;
#X connect 92 0 117 0;
#X connect 93 0 89 0;
#X connect 94 0 89 1;
#X connect 95 0 96 0;
#X connect 96 0 97 1;
#X connect 97 0 103 1;
#X connect 98 0 103 0;
#X connect 99 0 101 0;
#X connect 100 0 99 0;
#X connect 101 0 95 0;
#X connect 101 0 98 1;
#X connect 102 0 99 1;
#X connect 103 0 37 0;
#X connect 104 0 105 0;
#X connect 105 0 116 0;
#X connect 106 0 105 1;
#X connect 107 0 108 1;
#X connect 108 0 97 0;
#X connect 109 0 97 0;
#X connect 110 0 129 0;
#X connect 111 0 110 0;
#X connect 112 0 110 1;
#X connect 113 0 114 0;
#X connect 114 0 108 0;
#X connect 115 0 116 1;
#X connect 116 0 98 0;
#X connect 117 0 98 0;
#X connect 118 0 127 0;
#X connect 119 0 118 0;
#X connect 120 0 118 1;
#X connect 121 0 94 0;
#X connect 121 0 93 0;
#X connect 121 0 91 0;
#X connect 121 0 119 0;
#X connect 121 0 120 0;
#X connect 121 0 100 0;
#X connect 121 0 102 0;
#X connect 121 0 111 0;
#X connect 121 0 112 0;
#X connect 124 0 81 1;
#X connect 125 0 133 0;
#X connect 126 0 125 0;
#X connect 127 0 117 1;
#X connect 127 0 136 0;
#X connect 128 0 79 0;
#X connect 129 0 109 1;
#X connect 129 0 135 0;
#X connect 130 0 76 0;
#X connect 132 0 92 1;
#X connect 133 0 132 0;
#X connect 134 0 128 1;
#X connect 135 0 107 0;
#X connect 136 0 115 0;
#X connect 137 0 43 1;
#X connect 144 0 33 0;
#X connect 145 0 32 0;
#X connect 146 0 31 0;
#X connect 147 0 148 0;
#X connect 151 0 150 0;
#X connect 152 0 150 0;
#X connect 153 0 38 0;
#X connect 154 0 153 0;
#X connect 155 0 130 0;
#X connect 156 0 29 0;
#X connect 157 0 29 0;
#X connect 158 0 159 0;
#X connect 158 1 160 0;
#X connect 158 2 161 0;
#X connect 158 3 162 0;
#X connect 158 4 163 0;
#X connect 158 5 164 0;
#X connect 158 6 165 0;
#X connect 158 7 166 0;
#X connect 158 8 159 0;
#X connect 158 9 160 0;
#X connect 158 10 161 0;
#X connect 158 11 162 0;
#X connect 158 12 163 0;
#X connect 158 13 164 0;
#X connect 158 14 165 0;
#X connect 158 15 166 0;
#X connect 159 0 181 0;
#X connect 160 0 181 0;
#X connect 161 0 181 0;
#X connect 162 0 181 0;
#X connect 163 0 181 0;
#X connect 164 0 181 0;
#X connect 165 0 181 0;
#X connect 166 0 181 0;
#X connect 167 0 169 0;
#X connect 167 0 158 0;
#X connect 167 0 179 0;
#X connect 168 0 167 0;
#X connect 168 0 38 0;
#X connect 170 0 167 2;
#X connect 171 0 172 0;
#X connect 171 0 150 0;
#X connect 172 0 173 0;
#X connect 174 0 63 1;
#X connect 175 0 61 0;
#X connect 176 0 61 0;
#X connect 177 0 61 0;
#X connect 178 0 157 0;
#X connect 179 0 178 0;
#X connect 180 0 30 0;
#X connect 181 0 155 0;
#X connect 183 0 184 0;
#X connect 185 0 83 0;
#X connect 186 0 36 0;
#X connect 188 0 65 0;
#X connect 188 0 128 0;
#X connect 189 0 63 1;
#X connect 190 0 39 0;
#X connect 190 0 149 0;
#X connect 190 0 122 0;
#X connect 190 0 122 1;
#X connect 191 0 150 0;
